<svg xmlns="http://www.w3.org/2000/svg" width="1600" height="700" viewBox="0 0 1600 700">
  <defs>
    <linearGradient id="bg" x1="0" y1="0" x2="1" y2="1"><stop stop-color="#111d4d"/><stop offset=".5" stop-color="#281267"/><stop offset="1" stop-color="#06344b"/></linearGradient>
    <filter id="glow"><feGaussianBlur stdDeviation="8" result="b"/><feMerge><feMergeNode in="b"/><feMergeNode in="SourceGraphic"/></feMerge></filter>
    <pattern id="grid" width="60" height="60" patternUnits="userSpaceOnUse"><path d="M60 0H0V60" fill="none" stroke="#ffffff" stroke-opacity=".04"/></pattern>
  </defs>
  <rect width="1600" height="700" fill="url(#bg)"/><rect width="1600" height="700" fill="url(#grid)"/>
  <g fill="none" stroke-linecap="round" opacity=".8">
    <path d="M-40 510C180 180 410 690 680 210S1120 120 1630 430" stroke="#59e7ff" stroke-width="20"/>
    <path d="M-80 190C250 570 430 40 810 420S1270 660 1660 170" stroke="#ff4fa3" stroke-width="17"/>
    <path d="M40 620C340 250 620 690 960 280S1350 30 1580 310" stroke="#ffd35b" stroke-width="12"/>
    <path d="M40 80L270 240 510 70 760 250 1010 60 1280 245 1560 70" stroke="#58efad" stroke-width="9"/>
    <path d="M120 380l180-120 90 100 170-150 120 160 190-140 150 145 210-170 190 155" stroke="#8b5cf6" stroke-width="13"/>
  </g>
  <g opacity=".36" fill="none" stroke="#ffffff" stroke-width="4">
    <circle cx="180" cy="180" r="96"/><circle cx="1410" cy="505" r="120"/><path d="M105 120l145 145m-145 0l145-145M1325 420l170 170m-170 0l170-170"/>
  </g>
  <rect x="205" y="190" width="1190" height="330" rx="38" fill="#040815" fill-opacity=".84" stroke="#ffd35b" stroke-width="14"/>
  <text x="800" y="395" text-anchor="middle" fill="#f8fbff" font-family="Arial, sans-serif" font-size="210" font-weight="900" letter-spacing="18" filter="url(#glow)">YES</text>
  <text x="800" y="465" text-anchor="middle" fill="#ffd35b" font-family="Arial, sans-serif" font-size="42" font-weight="800" letter-spacing="11">WHAT WILL YOU SAY YES TO?</text>
</svg>
