<svg xmlns="http://www.w3.org/2000/svg" width="1200" height="1200" viewBox="0 0 1200 1200">
  <defs>
    <radialGradient id="bg"><stop stop-color="#19215a"/><stop offset=".55" stop-color="#0c1232"/><stop offset="1" stop-color="#030713"/></radialGradient>
    <filter id="glow"><feGaussianBlur stdDeviation="14" result="b"/><feMerge><feMergeNode in="b"/><feMergeNode in="SourceGraphic"/></feMerge></filter>
  </defs>
  <rect width="1200" height="1200" fill="url(#bg)"/>
  <g fill="none" opacity=".28" stroke-linecap="round">
    <path d="M-60 1100C210 680 420 1160 690 600S1020 190 1280 400" stroke="#56e7ff" stroke-width="18"/>
    <path d="M-80 300C260 730 450 110 760 520S1040 900 1280 630" stroke="#8b5cf6" stroke-width="16"/>
    <path d="M100 160L290 340 500 140 710 350 930 120 1130 290" stroke="#ffd35b" stroke-width="10"/>
  </g>
  <g opacity=".12" stroke="#ffffff" fill="none" stroke-width="3">
    <path d="M0 180H1200M0 360H1200M0 540H1200M0 720H1200M0 900H1200"/>
    <path d="M150 0V1200M350 0V1200M550 0V1200M750 0V1200M950 0V1200"/>
  </g>
  <circle cx="600" cy="580" r="255" fill="#040815" fill-opacity=".72" stroke="#58e7ff" stroke-opacity=".4" stroke-width="8"/>
  <text x="600" y="650" text-anchor="middle" fill="#f7fbff" font-family="Arial, sans-serif" font-size="270" font-weight="900" font-style="italic" filter="url(#glow)">YF</text>
  <text x="600" y="800" text-anchor="middle" fill="#ffd35b" font-family="Arial, sans-serif" font-size="52" font-weight="800" letter-spacing="14">DROP • PING • PUSH</text>
</svg>
